# xmcd
#
# Track frame offsets:
#	150
#	60392
#	123769
#	189336
#
# Disc length: 3361 seconds
#
# Revision: 1
# Processed by: cddbd v1.5.1PL0 Copyright (c) Steve Scherf et al.
# Submitted via: audiograbber 1.80
#
DISCID=280d1f04
DTITLE=Rivka Simmons - Creating Calm in Your Life
DYEAR=1900
DGENRE=
TTITLE0=Mindfulness Meditation One
TTITLE1=Mindfulness Meditation Two
TTITLE2=A Progressive Muscle Relaxation
TTITLE3=A Body Scan Relaxation
EXTD=
EXTT0=
EXTT1=
EXTT2=
EXTT3=
PLAYORDER=
